<svg width="1480" height="460" viewBox="0 0 1480 460" fill="none" xmlns="http://www.w3.org/2000/svg">
<path fill-rule="evenodd" clip-rule="evenodd" d="M613.637 456.061L614.697 460L615.757 456.061L619.694 455L615.757 453.939L614.697 450L613.637 453.939L609.699 455L613.637 456.061ZM613.637 366.061L614.697 370L615.757 366.061L619.694 365L615.757 363.939L614.697 360L613.637 363.939L609.699 365L613.637 366.061ZM614.697 280L613.637 276.061L609.699 275L613.637 273.939L614.697 270L615.757 273.939L619.694 275L615.757 276.061L614.697 280ZM613.637 186.061L614.697 190L615.757 186.061L619.694 185L615.757 183.939L614.697 180L613.637 183.939L609.699 185L613.637 186.061ZM524.741 460L523.681 456.061L519.744 455L523.681 453.939L524.741 450L525.801 453.939L529.739 455L525.801 456.061L524.741 460ZM523.681 366.061L524.741 370L525.801 366.061L529.739 365L525.801 363.939L524.741 360L523.681 363.939L519.744 365L523.681 366.061ZM524.741 280L523.681 276.061L519.744 275L523.681 273.939L524.741 270L525.801 273.939L529.739 275L525.801 276.061L524.741 280ZM523.681 186.061L524.741 190L525.801 186.061L529.739 185L525.801 183.939L524.741 180L523.681 183.939L519.744 185L523.681 186.061ZM434.786 460L433.725 456.061L429.788 455L433.725 453.939L434.786 450L435.846 453.939L439.783 455L435.846 456.061L434.786 460ZM433.725 366.061L434.786 370L435.846 366.061L439.783 365L435.846 363.939L434.786 360L433.725 363.939L429.788 365L433.725 366.061ZM434.786 280L433.725 276.061L429.788 275L433.725 273.939L434.786 270L435.846 273.939L439.783 275L435.846 276.061L434.786 280ZM433.725 186.061L434.786 190L435.846 186.061L439.783 185L435.846 183.939L434.786 180L433.725 183.939L429.788 185L433.725 186.061ZM344.83 460L343.77 456.061L339.832 455L343.77 453.939L344.83 450L345.89 453.939L349.827 455L345.89 456.061L344.83 460ZM343.77 366.061L344.83 370L345.89 366.061L349.827 365L345.89 363.939L344.83 360L343.77 363.939L339.832 365L343.77 366.061ZM344.83 280L343.77 276.061L339.832 275L343.77 273.939L344.83 270L345.89 273.939L349.827 275L345.89 276.061L344.83 280ZM343.77 186.061L344.83 190L345.89 186.061L349.827 185L345.89 183.939L344.83 180L343.77 183.939L339.832 185L343.77 186.061Z" fill="white" fill-opacity="0.5"/>
<path fill-rule="evenodd" clip-rule="evenodd" d="M273.805 456.061L274.865 460L275.925 456.061L279.862 455L275.925 453.939L274.865 450L273.805 453.939L269.867 455L273.805 456.061ZM273.805 366.061L274.865 370L275.925 366.061L279.862 365L275.925 363.939L274.865 360L273.805 363.939L269.867 365L273.805 366.061ZM274.865 280L273.805 276.061L269.867 275L273.805 273.939L274.865 270L275.925 273.939L279.862 275L275.925 276.061L274.865 280ZM273.805 186.061L274.865 190L275.925 186.061L279.862 185L275.925 183.939L274.865 180L273.805 183.939L269.867 185L273.805 186.061ZM184.909 460L183.849 456.061L179.912 455L183.849 453.939L184.909 450L185.969 453.939L189.907 455L185.969 456.061L184.909 460ZM183.849 366.061L184.909 370L185.969 366.061L189.907 365L185.969 363.939L184.909 360L183.849 363.939L179.912 365L183.849 366.061ZM184.909 280L183.849 276.061L179.912 275L183.849 273.939L184.909 270L185.969 273.939L189.907 275L185.969 276.061L184.909 280ZM183.849 186.061L184.909 190L185.969 186.061L189.907 185L185.969 183.939L184.909 180L183.849 183.939L179.912 185L183.849 186.061ZM94.9535 460L93.8934 456.061L89.956 455L93.8934 453.939L94.9535 450L96.0136 453.939L99.9511 455L96.0136 456.061L94.9535 460ZM93.8934 366.061L94.9535 370L96.0136 366.061L99.9511 365L96.0136 363.939L94.9535 360L93.8934 363.939L89.956 365L93.8934 366.061ZM94.9535 280L93.8934 276.061L89.956 275L93.8934 273.939L94.9535 270L96.0136 273.939L99.9511 275L96.0136 276.061L94.9535 280ZM93.8934 186.061L94.9535 190L96.0136 186.061L99.9511 185L96.0136 183.939L94.9535 180L93.8934 183.939L89.956 185L93.8934 186.061ZM4.99789 460L3.93775 456.061L0.000358582 455L3.93775 453.939L4.99789 450L6.05804 453.939L9.99543 455L6.05804 456.061L4.99789 460ZM3.93775 366.061L4.99789 370L6.05804 366.061L9.99543 365L6.05804 363.939L4.99789 360L3.93775 363.939L0.000358582 365L3.93775 366.061ZM4.99789 280L3.93775 276.061L0.000358582 275L3.93775 273.939L4.99789 270L6.05804 273.939L9.99543 275L6.05804 276.061L4.99789 280ZM3.93775 186.061L4.99789 190L6.05804 186.061L9.99543 185L6.05804 183.939L4.99789 180L3.93775 183.939L0.000358582 185L3.93775 186.061Z" fill="white" fill-opacity="0.5"/>
<path fill-rule="evenodd" clip-rule="evenodd" d="M1133.64 456.061L1134.7 460L1135.76 456.061L1139.69 455L1135.76 453.939L1134.7 450L1133.64 453.939L1129.7 455L1133.64 456.061ZM1133.64 366.061L1134.7 370L1135.76 366.061L1139.69 365L1135.76 363.939L1134.7 360L1133.64 363.939L1129.7 365L1133.64 366.061ZM1134.7 280L1133.64 276.061L1129.7 275L1133.64 273.939L1134.7 270L1135.76 273.939L1139.69 275L1135.76 276.061L1134.7 280ZM1133.64 186.061L1134.7 190L1135.76 186.061L1139.69 185L1135.76 183.939L1134.7 180L1133.64 183.939L1129.7 185L1133.64 186.061ZM1044.74 460L1043.68 456.061L1039.74 455L1043.68 453.939L1044.74 450L1045.8 453.939L1049.74 455L1045.8 456.061L1044.74 460ZM1043.68 366.061L1044.74 370L1045.8 366.061L1049.74 365L1045.8 363.939L1044.74 360L1043.68 363.939L1039.74 365L1043.68 366.061ZM1044.74 280L1043.68 276.061L1039.74 275L1043.68 273.939L1044.74 270L1045.8 273.939L1049.74 275L1045.8 276.061L1044.74 280ZM1043.68 186.061L1044.74 190L1045.8 186.061L1049.74 185L1045.8 183.939L1044.74 180L1043.68 183.939L1039.74 185L1043.68 186.061ZM954.786 460L953.725 456.061L949.788 455L953.725 453.939L954.786 450L955.846 453.939L959.783 455L955.846 456.061L954.786 460ZM953.725 366.061L954.786 370L955.846 366.061L959.783 365L955.846 363.939L954.786 360L953.725 363.939L949.788 365L953.725 366.061ZM954.786 280L953.725 276.061L949.788 275L953.725 273.939L954.786 270L955.846 273.939L959.783 275L955.846 276.061L954.786 280ZM953.725 186.061L954.786 190L955.846 186.061L959.783 185L955.846 183.939L954.786 180L953.725 183.939L949.788 185L953.725 186.061ZM864.83 460L863.77 456.061L859.832 455L863.77 453.939L864.83 450L865.89 453.939L869.827 455L865.89 456.061L864.83 460ZM863.77 366.061L864.83 370L865.89 366.061L869.827 365L865.89 363.939L864.83 360L863.77 363.939L859.832 365L863.77 366.061ZM864.83 280L863.77 276.061L859.832 275L863.77 273.939L864.83 270L865.89 273.939L869.827 275L865.89 276.061L864.83 280ZM863.77 186.061L864.83 190L865.89 186.061L869.827 185L865.89 183.939L864.83 180L863.77 183.939L859.832 185L863.77 186.061Z" fill="white" fill-opacity="0.5"/>
<path fill-rule="evenodd" clip-rule="evenodd" d="M793.805 456.061L794.865 460L795.925 456.061L799.862 455L795.925 453.939L794.865 450L793.805 453.939L789.867 455L793.805 456.061ZM793.805 366.061L794.865 370L795.925 366.061L799.862 365L795.925 363.939L794.865 360L793.805 363.939L789.867 365L793.805 366.061ZM794.865 280L793.805 276.061L789.867 275L793.805 273.939L794.865 270L795.925 273.939L799.862 275L795.925 276.061L794.865 280ZM793.805 186.061L794.865 190L795.925 186.061L799.862 185L795.925 183.939L794.865 180L793.805 183.939L789.867 185L793.805 186.061ZM704.909 460L703.849 456.061L699.912 455L703.849 453.939L704.909 450L705.969 453.939L709.907 455L705.969 456.061L704.909 460ZM703.849 366.061L704.909 370L705.969 366.061L709.907 365L705.969 363.939L704.909 360L703.849 363.939L699.912 365L703.849 366.061ZM704.909 280L703.849 276.061L699.912 275L703.849 273.939L704.909 270L705.969 273.939L709.907 275L705.969 276.061L704.909 280ZM703.849 186.061L704.909 190L705.969 186.061L709.907 185L705.969 183.939L704.909 180L703.849 183.939L699.912 185L703.849 186.061ZM614.954 460L613.893 456.061L609.956 455L613.893 453.939L614.954 450L616.014 453.939L619.951 455L616.014 456.061L614.954 460ZM613.893 366.061L614.954 370L616.014 366.061L619.951 365L616.014 363.939L614.954 360L613.893 363.939L609.956 365L613.893 366.061ZM614.954 280L613.893 276.061L609.956 275L613.893 273.939L614.954 270L616.014 273.939L619.951 275L616.014 276.061L614.954 280ZM613.893 186.061L614.954 190L616.014 186.061L619.951 185L616.014 183.939L614.954 180L613.893 183.939L609.956 185L613.893 186.061ZM524.998 460L523.938 456.061L520 455L523.938 453.939L524.998 450L526.058 453.939L529.995 455L526.058 456.061L524.998 460ZM523.938 366.061L524.998 370L526.058 366.061L529.995 365L526.058 363.939L524.998 360L523.938 363.939L520 365L523.938 366.061ZM524.998 280L523.938 276.061L520 275L523.938 273.939L524.998 270L526.058 273.939L529.995 275L526.058 276.061L524.998 280ZM523.938 186.061L524.998 190L526.058 186.061L529.995 185L526.058 183.939L524.998 180L523.938 183.939L520 185L523.938 186.061Z" fill="white" fill-opacity="0.5"/>
<path fill-rule="evenodd" clip-rule="evenodd" d="M1473.64 456.061L1474.7 460L1475.76 456.061L1479.69 455L1475.76 453.939L1474.7 450L1473.64 453.939L1469.7 455L1473.64 456.061ZM1473.64 366.061L1474.7 370L1475.76 366.061L1479.69 365L1475.76 363.939L1474.7 360L1473.64 363.939L1469.7 365L1473.64 366.061ZM1474.7 280L1473.64 276.061L1469.7 275L1473.64 273.939L1474.7 270L1475.76 273.939L1479.69 275L1475.76 276.061L1474.7 280ZM1473.64 186.061L1474.7 190L1475.76 186.061L1479.69 185L1475.76 183.939L1474.7 180L1473.64 183.939L1469.7 185L1473.64 186.061ZM1384.74 460L1383.68 456.061L1379.74 455L1383.68 453.939L1384.74 450L1385.8 453.939L1389.74 455L1385.8 456.061L1384.74 460ZM1383.68 366.061L1384.74 370L1385.8 366.061L1389.74 365L1385.8 363.939L1384.74 360L1383.68 363.939L1379.74 365L1383.68 366.061ZM1384.74 280L1383.68 276.061L1379.74 275L1383.68 273.939L1384.74 270L1385.8 273.939L1389.74 275L1385.8 276.061L1384.74 280ZM1383.68 186.061L1384.74 190L1385.8 186.061L1389.74 185L1385.8 183.939L1384.74 180L1383.68 183.939L1379.74 185L1383.68 186.061ZM1294.79 460L1293.73 456.061L1289.79 455L1293.73 453.939L1294.79 450L1295.85 453.939L1299.78 455L1295.85 456.061L1294.79 460ZM1293.73 366.061L1294.79 370L1295.85 366.061L1299.78 365L1295.85 363.939L1294.79 360L1293.73 363.939L1289.79 365L1293.73 366.061ZM1294.79 280L1293.73 276.061L1289.79 275L1293.73 273.939L1294.79 270L1295.85 273.939L1299.78 275L1295.85 276.061L1294.79 280ZM1293.73 186.061L1294.79 190L1295.85 186.061L1299.78 185L1295.85 183.939L1294.79 180L1293.73 183.939L1289.79 185L1293.73 186.061ZM1204.83 460L1203.77 456.061L1199.83 455L1203.77 453.939L1204.83 450L1205.89 453.939L1209.83 455L1205.89 456.061L1204.83 460ZM1203.77 366.061L1204.83 370L1205.89 366.061L1209.83 365L1205.89 363.939L1204.83 360L1203.77 363.939L1199.83 365L1203.77 366.061ZM1204.83 280L1203.77 276.061L1199.83 275L1203.77 273.939L1204.83 270L1205.89 273.939L1209.83 275L1205.89 276.061L1204.83 280ZM1203.77 186.061L1204.83 190L1205.89 186.061L1209.83 185L1205.89 183.939L1204.83 180L1203.77 183.939L1199.83 185L1203.77 186.061Z" fill="white" fill-opacity="0.5"/>
<path fill-rule="evenodd" clip-rule="evenodd" d="M1133.8 456.061L1134.86 460L1135.92 456.061L1139.86 455L1135.92 453.939L1134.86 450L1133.8 453.939L1129.87 455L1133.8 456.061ZM1133.8 366.061L1134.86 370L1135.92 366.061L1139.86 365L1135.92 363.939L1134.86 360L1133.8 363.939L1129.87 365L1133.8 366.061ZM1134.86 280L1133.8 276.061L1129.87 275L1133.8 273.939L1134.86 270L1135.92 273.939L1139.86 275L1135.92 276.061L1134.86 280ZM1133.8 186.061L1134.86 190L1135.92 186.061L1139.86 185L1135.92 183.939L1134.86 180L1133.8 183.939L1129.87 185L1133.8 186.061ZM1044.91 460L1043.85 456.061L1039.91 455L1043.85 453.939L1044.91 450L1045.97 453.939L1049.91 455L1045.97 456.061L1044.91 460ZM1043.85 366.061L1044.91 370L1045.97 366.061L1049.91 365L1045.97 363.939L1044.91 360L1043.85 363.939L1039.91 365L1043.85 366.061ZM1044.91 280L1043.85 276.061L1039.91 275L1043.85 273.939L1044.91 270L1045.97 273.939L1049.91 275L1045.97 276.061L1044.91 280ZM1043.85 186.061L1044.91 190L1045.97 186.061L1049.91 185L1045.97 183.939L1044.91 180L1043.85 183.939L1039.91 185L1043.85 186.061ZM954.954 460L953.893 456.061L949.956 455L953.893 453.939L954.954 450L956.014 453.939L959.951 455L956.014 456.061L954.954 460ZM953.893 366.061L954.954 370L956.014 366.061L959.951 365L956.014 363.939L954.954 360L953.893 363.939L949.956 365L953.893 366.061ZM954.954 280L953.893 276.061L949.956 275L953.893 273.939L954.954 270L956.014 273.939L959.951 275L956.014 276.061L954.954 280ZM953.893 186.061L954.954 190L956.014 186.061L959.951 185L956.014 183.939L954.954 180L953.893 183.939L949.956 185L953.893 186.061ZM864.998 460L863.938 456.061L860 455L863.938 453.939L864.998 450L866.058 453.939L869.995 455L866.058 456.061L864.998 460ZM863.938 366.061L864.998 370L866.058 366.061L869.995 365L866.058 363.939L864.998 360L863.938 363.939L860 365L863.938 366.061ZM864.998 280L863.938 276.061L860 275L863.938 273.939L864.998 270L866.058 273.939L869.995 275L866.058 276.061L864.998 280ZM863.938 186.061L864.998 190L866.058 186.061L869.995 185L866.058 183.939L864.998 180L863.938 183.939L860 185L863.938 186.061Z" fill="white" fill-opacity="0.5"/>
<path fill-rule="evenodd" clip-rule="evenodd" d="M613.637 276.061L614.697 280L615.757 276.061L619.694 275L615.757 273.939L614.697 270L613.637 273.939L609.699 275L613.637 276.061ZM613.637 186.061L614.697 190L615.757 186.061L619.694 185L615.757 183.939L614.697 180L613.637 183.939L609.699 185L613.637 186.061ZM614.697 100L613.637 96.0607L609.699 95L613.637 93.9393L614.697 90L615.757 93.9393L619.694 95L615.757 96.0607L614.697 100ZM613.637 6.06067L614.697 10L615.757 6.06067L619.694 5L615.757 3.93933L614.697 0L613.637 3.93933L609.699 5L613.637 6.06067ZM524.741 280L523.681 276.061L519.744 275L523.681 273.939L524.741 270L525.801 273.939L529.739 275L525.801 276.061L524.741 280ZM523.681 186.061L524.741 190L525.801 186.061L529.739 185L525.801 183.939L524.741 180L523.681 183.939L519.744 185L523.681 186.061ZM524.741 100L523.681 96.0607L519.744 95L523.681 93.9393L524.741 90L525.801 93.9393L529.739 95L525.801 96.0607L524.741 100ZM523.681 6.06067L524.741 10L525.801 6.06067L529.739 5L525.801 3.93933L524.741 0L523.681 3.93933L519.744 5L523.681 6.06067ZM434.786 280L433.725 276.061L429.788 275L433.725 273.939L434.786 270L435.846 273.939L439.783 275L435.846 276.061L434.786 280ZM433.725 186.061L434.786 190L435.846 186.061L439.783 185L435.846 183.939L434.786 180L433.725 183.939L429.788 185L433.725 186.061ZM434.786 100L433.725 96.0607L429.788 95L433.725 93.9393L434.786 90L435.846 93.9393L439.783 95L435.846 96.0607L434.786 100ZM433.725 6.06067L434.786 10L435.846 6.06067L439.783 5L435.846 3.93933L434.786 0L433.725 3.93933L429.788 5L433.725 6.06067ZM344.83 280L343.77 276.061L339.832 275L343.77 273.939L344.83 270L345.89 273.939L349.827 275L345.89 276.061L344.83 280ZM343.77 186.061L344.83 190L345.89 186.061L349.827 185L345.89 183.939L344.83 180L343.77 183.939L339.832 185L343.77 186.061ZM344.83 100L343.77 96.0607L339.832 95L343.77 93.9393L344.83 90L345.89 93.9393L349.827 95L345.89 96.0607L344.83 100ZM343.77 6.06067L344.83 10L345.89 6.06067L349.827 5L345.89 3.93933L344.83 0L343.77 3.93933L339.832 5L343.77 6.06067Z" fill="white" fill-opacity="0.5"/>
<path fill-rule="evenodd" clip-rule="evenodd" d="M273.805 276.061L274.865 280L275.925 276.061L279.862 275L275.925 273.939L274.865 270L273.805 273.939L269.867 275L273.805 276.061ZM273.805 186.061L274.865 190L275.925 186.061L279.862 185L275.925 183.939L274.865 180L273.805 183.939L269.867 185L273.805 186.061ZM274.865 100L273.805 96.0607L269.867 95L273.805 93.9393L274.865 90L275.925 93.9393L279.862 95L275.925 96.0607L274.865 100ZM273.805 6.06067L274.865 10L275.925 6.06067L279.862 5L275.925 3.93933L274.865 0L273.805 3.93933L269.867 5L273.805 6.06067ZM184.909 280L183.849 276.061L179.912 275L183.849 273.939L184.909 270L185.969 273.939L189.907 275L185.969 276.061L184.909 280ZM183.849 186.061L184.909 190L185.969 186.061L189.907 185L185.969 183.939L184.909 180L183.849 183.939L179.912 185L183.849 186.061ZM184.909 100L183.849 96.0607L179.912 95L183.849 93.9393L184.909 90L185.969 93.9393L189.907 95L185.969 96.0607L184.909 100ZM183.849 6.06067L184.909 10L185.969 6.06067L189.907 5L185.969 3.93933L184.909 0L183.849 3.93933L179.912 5L183.849 6.06067ZM94.9535 280L93.8934 276.061L89.956 275L93.8934 273.939L94.9535 270L96.0136 273.939L99.9511 275L96.0136 276.061L94.9535 280ZM93.8934 186.061L94.9535 190L96.0136 186.061L99.9511 185L96.0136 183.939L94.9535 180L93.8934 183.939L89.956 185L93.8934 186.061ZM94.9535 100L93.8934 96.0607L89.956 95L93.8934 93.9393L94.9535 90L96.0136 93.9393L99.9511 95L96.0136 96.0607L94.9535 100ZM93.8934 6.06067L94.9535 10L96.0136 6.06067L99.9511 5L96.0136 3.93933L94.9535 0L93.8934 3.93933L89.956 5L93.8934 6.06067ZM4.99789 280L3.93775 276.061L0.000358582 275L3.93775 273.939L4.99789 270L6.05804 273.939L9.99543 275L6.05804 276.061L4.99789 280ZM3.93775 186.061L4.99789 190L6.05804 186.061L9.99543 185L6.05804 183.939L4.99789 180L3.93775 183.939L0.000358582 185L3.93775 186.061ZM4.99789 100L3.93775 96.0607L0.000358582 95L3.93775 93.9393L4.99789 90L6.05804 93.9393L9.99543 95L6.05804 96.0607L4.99789 100ZM3.93775 6.06067L4.99789 10L6.05804 6.06067L9.99543 5L6.05804 3.93933L4.99789 0L3.93775 3.93933L0.000358582 5L3.93775 6.06067Z" fill="white" fill-opacity="0.5"/>
<path fill-rule="evenodd" clip-rule="evenodd" d="M1133.66 276.061L1134.72 280L1135.78 276.061L1139.72 275L1135.78 273.939L1134.72 270L1133.66 273.939L1129.73 275L1133.66 276.061ZM1133.66 186.061L1134.72 190L1135.78 186.061L1139.72 185L1135.78 183.939L1134.72 180L1133.66 183.939L1129.73 185L1133.66 186.061ZM1134.72 100L1133.66 96.0607L1129.73 95L1133.66 93.9393L1134.72 90L1135.78 93.9393L1139.72 95L1135.78 96.0607L1134.72 100ZM1133.66 6.06067L1134.72 10L1135.78 6.06067L1139.72 5L1135.78 3.93933L1134.72 0L1133.66 3.93933L1129.73 5L1133.66 6.06067ZM1044.77 280L1043.71 276.061L1039.77 275L1043.71 273.939L1044.77 270L1045.83 273.939L1049.77 275L1045.83 276.061L1044.77 280ZM1043.71 186.061L1044.77 190L1045.83 186.061L1049.77 185L1045.83 183.939L1044.77 180L1043.71 183.939L1039.77 185L1043.71 186.061ZM1044.77 100L1043.71 96.0607L1039.77 95L1043.71 93.9393L1044.77 90L1045.83 93.9393L1049.77 95L1045.83 96.0607L1044.77 100ZM1043.71 6.06067L1044.77 10L1045.83 6.06067L1049.77 5L1045.83 3.93933L1044.77 0L1043.71 3.93933L1039.77 5L1043.71 6.06067ZM954.812 280L953.752 276.061L949.814 275L953.752 273.939L954.812 270L955.872 273.939L959.809 275L955.872 276.061L954.812 280ZM953.752 186.061L954.812 190L955.872 186.061L959.809 185L955.872 183.939L954.812 180L953.752 183.939L949.814 185L953.752 186.061ZM954.812 100L953.752 96.0607L949.814 95L953.752 93.9393L954.812 90L955.872 93.9393L959.809 95L955.872 96.0607L954.812 100ZM953.752 6.06067L954.812 10L955.872 6.06067L959.809 5L955.872 3.93933L954.812 0L953.752 3.93933L949.814 5L953.752 6.06067ZM864.856 280L863.796 276.061L859.859 275L863.796 273.939L864.856 270L865.916 273.939L869.854 275L865.916 276.061L864.856 280ZM863.796 186.061L864.856 190L865.916 186.061L869.854 185L865.916 183.939L864.856 180L863.796 183.939L859.859 185L863.796 186.061ZM864.856 100L863.796 96.0607L859.859 95L863.796 93.9393L864.856 90L865.916 93.9393L869.854 95L865.916 96.0607L864.856 100ZM863.796 6.06067L864.856 10L865.916 6.06067L869.854 5L865.916 3.93933L864.856 0L863.796 3.93933L859.859 5L863.796 6.06067Z" fill="white" fill-opacity="0.5"/>
<path fill-rule="evenodd" clip-rule="evenodd" d="M793.831 276.061L794.891 280L795.951 276.061L799.889 275L795.951 273.939L794.891 270L793.831 273.939L789.894 275L793.831 276.061ZM793.831 186.061L794.891 190L795.951 186.061L799.889 185L795.951 183.939L794.891 180L793.831 183.939L789.894 185L793.831 186.061ZM794.891 100L793.831 96.0607L789.894 95L793.831 93.9393L794.891 90L795.951 93.9393L799.889 95L795.951 96.0607L794.891 100ZM793.831 6.06067L794.891 10L795.951 6.06067L799.889 5L795.951 3.93933L794.891 0L793.831 3.93933L789.894 5L793.831 6.06067ZM704.936 280L703.875 276.061L699.938 275L703.875 273.939L704.936 270L705.996 273.939L709.933 275L705.996 276.061L704.936 280ZM703.875 186.061L704.936 190L705.996 186.061L709.933 185L705.996 183.939L704.936 180L703.875 183.939L699.938 185L703.875 186.061ZM704.936 100L703.875 96.0607L699.938 95L703.875 93.9393L704.936 90L705.996 93.9393L709.933 95L705.996 96.0607L704.936 100ZM703.875 6.06067L704.936 10L705.996 6.06067L709.933 5L705.996 3.93933L704.936 0L703.875 3.93933L699.938 5L703.875 6.06067ZM614.98 280L613.92 276.061L609.982 275L613.92 273.939L614.98 270L616.04 273.939L619.977 275L616.04 276.061L614.98 280ZM613.92 186.061L614.98 190L616.04 186.061L619.977 185L616.04 183.939L614.98 180L613.92 183.939L609.982 185L613.92 186.061ZM614.98 100L613.92 96.0607L609.982 95L613.92 93.9393L614.98 90L616.04 93.9393L619.977 95L616.04 96.0607L614.98 100ZM613.92 6.06067L614.98 10L616.04 6.06067L619.977 5L616.04 3.93933L614.98 0L613.92 3.93933L609.982 5L613.92 6.06067ZM525.024 280L523.964 276.061L520.027 275L523.964 273.939L525.024 270L526.084 273.939L530.022 275L526.084 276.061L525.024 280ZM523.964 186.061L525.024 190L526.084 186.061L530.022 185L526.084 183.939L525.024 180L523.964 183.939L520.027 185L523.964 186.061ZM525.024 100L523.964 96.0607L520.027 95L523.964 93.9393L525.024 90L526.084 93.9393L530.022 95L526.084 96.0607L525.024 100ZM523.964 6.06067L525.024 10L526.084 6.06067L530.022 5L526.084 3.93933L525.024 0L523.964 3.93933L520.027 5L523.964 6.06067Z" fill="white" fill-opacity="0.5"/>
<path fill-rule="evenodd" clip-rule="evenodd" d="M1473.66 276.061L1474.72 280L1475.78 276.061L1479.72 275L1475.78 273.939L1474.72 270L1473.66 273.939L1469.73 275L1473.66 276.061ZM1473.66 186.061L1474.72 190L1475.78 186.061L1479.72 185L1475.78 183.939L1474.72 180L1473.66 183.939L1469.73 185L1473.66 186.061ZM1474.72 100L1473.66 96.0607L1469.73 95L1473.66 93.9393L1474.72 90L1475.78 93.9393L1479.72 95L1475.78 96.0607L1474.72 100ZM1473.66 6.06067L1474.72 10L1475.78 6.06067L1479.72 5L1475.78 3.93933L1474.72 0L1473.66 3.93933L1469.73 5L1473.66 6.06067ZM1384.77 280L1383.71 276.061L1379.77 275L1383.71 273.939L1384.77 270L1385.83 273.939L1389.77 275L1385.83 276.061L1384.77 280ZM1383.71 186.061L1384.77 190L1385.83 186.061L1389.77 185L1385.83 183.939L1384.77 180L1383.71 183.939L1379.77 185L1383.71 186.061ZM1384.77 100L1383.71 96.0607L1379.77 95L1383.71 93.9393L1384.77 90L1385.83 93.9393L1389.77 95L1385.83 96.0607L1384.77 100ZM1383.71 6.06067L1384.77 10L1385.83 6.06067L1389.77 5L1385.83 3.93933L1384.77 0L1383.71 3.93933L1379.77 5L1383.71 6.06067ZM1294.81 280L1293.75 276.061L1289.81 275L1293.75 273.939L1294.81 270L1295.87 273.939L1299.81 275L1295.87 276.061L1294.81 280ZM1293.75 186.061L1294.81 190L1295.87 186.061L1299.81 185L1295.87 183.939L1294.81 180L1293.75 183.939L1289.81 185L1293.75 186.061ZM1294.81 100L1293.75 96.0607L1289.81 95L1293.75 93.9393L1294.81 90L1295.87 93.9393L1299.81 95L1295.87 96.0607L1294.81 100ZM1293.75 6.06067L1294.81 10L1295.87 6.06067L1299.81 5L1295.87 3.93933L1294.81 0L1293.75 3.93933L1289.81 5L1293.75 6.06067ZM1204.86 280L1203.8 276.061L1199.86 275L1203.8 273.939L1204.86 270L1205.92 273.939L1209.85 275L1205.92 276.061L1204.86 280ZM1203.8 186.061L1204.86 190L1205.92 186.061L1209.85 185L1205.92 183.939L1204.86 180L1203.8 183.939L1199.86 185L1203.8 186.061ZM1204.86 100L1203.8 96.0607L1199.86 95L1203.8 93.9393L1204.86 90L1205.92 93.9393L1209.85 95L1205.92 96.0607L1204.86 100ZM1203.8 6.06067L1204.86 10L1205.92 6.06067L1209.85 5L1205.92 3.93933L1204.86 0L1203.8 3.93933L1199.86 5L1203.8 6.06067Z" fill="white" fill-opacity="0.5"/>
<path fill-rule="evenodd" clip-rule="evenodd" d="M1133.83 276.061L1134.89 280L1135.95 276.061L1139.89 275L1135.95 273.939L1134.89 270L1133.83 273.939L1129.89 275L1133.83 276.061ZM1133.83 186.061L1134.89 190L1135.95 186.061L1139.89 185L1135.95 183.939L1134.89 180L1133.83 183.939L1129.89 185L1133.83 186.061ZM1134.89 100L1133.83 96.0607L1129.89 95L1133.83 93.9393L1134.89 90L1135.95 93.9393L1139.89 95L1135.95 96.0607L1134.89 100ZM1133.83 6.06067L1134.89 10L1135.95 6.06067L1139.89 5L1135.95 3.93933L1134.89 0L1133.83 3.93933L1129.89 5L1133.83 6.06067ZM1044.94 280L1043.88 276.061L1039.94 275L1043.88 273.939L1044.94 270L1046 273.939L1049.93 275L1046 276.061L1044.94 280ZM1043.88 186.061L1044.94 190L1046 186.061L1049.93 185L1046 183.939L1044.94 180L1043.88 183.939L1039.94 185L1043.88 186.061ZM1044.94 100L1043.88 96.0607L1039.94 95L1043.88 93.9393L1044.94 90L1046 93.9393L1049.93 95L1046 96.0607L1044.94 100ZM1043.88 6.06067L1044.94 10L1046 6.06067L1049.93 5L1046 3.93933L1044.94 0L1043.88 3.93933L1039.94 5L1043.88 6.06067ZM954.98 280L953.92 276.061L949.982 275L953.92 273.939L954.98 270L956.04 273.939L959.977 275L956.04 276.061L954.98 280ZM953.92 186.061L954.98 190L956.04 186.061L959.977 185L956.04 183.939L954.98 180L953.92 183.939L949.982 185L953.92 186.061ZM954.98 100L953.92 96.0607L949.982 95L953.92 93.9393L954.98 90L956.04 93.9393L959.977 95L956.04 96.0607L954.98 100ZM953.92 6.06067L954.98 10L956.04 6.06067L959.977 5L956.04 3.93933L954.98 0L953.92 3.93933L949.982 5L953.92 6.06067ZM865.024 280L863.964 276.061L860.027 275L863.964 273.939L865.024 270L866.084 273.939L870.022 275L866.084 276.061L865.024 280ZM863.964 186.061L865.024 190L866.084 186.061L870.022 185L866.084 183.939L865.024 180L863.964 183.939L860.027 185L863.964 186.061ZM865.024 100L863.964 96.0607L860.027 95L863.964 93.9393L865.024 90L866.084 93.9393L870.022 95L866.084 96.0607L865.024 100ZM863.964 6.06067L865.024 10L866.084 6.06067L870.022 5L866.084 3.93933L865.024 0L863.964 3.93933L860.027 5L863.964 6.06067Z" fill="white" fill-opacity="0.5"/>
</svg>
