<svg width="1480" height="280" viewBox="0 0 1480 280" fill="none" xmlns="http://www.w3.org/2000/svg">
<path fill-rule="evenodd" clip-rule="evenodd" d="M613.637 276.061L614.697 280L615.757 276.061L619.694 275L615.757 273.939L614.697 270L613.637 273.939L609.699 275L613.637 276.061ZM613.637 186.061L614.697 190L615.757 186.061L619.694 185L615.757 183.939L614.697 180L613.637 183.939L609.699 185L613.637 186.061ZM614.697 100L613.637 96.0607L609.699 95L613.637 93.9393L614.697 90L615.757 93.9393L619.694 95L615.757 96.0607L614.697 100ZM613.637 6.06067L614.697 10L615.757 6.06067L619.694 5L615.757 3.93933L614.697 0L613.637 3.93933L609.699 5L613.637 6.06067ZM524.741 280L523.681 276.061L519.744 275L523.681 273.939L524.741 270L525.801 273.939L529.739 275L525.801 276.061L524.741 280ZM523.681 186.061L524.741 190L525.801 186.061L529.739 185L525.801 183.939L524.741 180L523.681 183.939L519.744 185L523.681 186.061ZM524.741 100L523.681 96.0607L519.744 95L523.681 93.9393L524.741 90L525.801 93.9393L529.739 95L525.801 96.0607L524.741 100ZM523.681 6.06067L524.741 10L525.801 6.06067L529.739 5L525.801 3.93933L524.741 0L523.681 3.93933L519.744 5L523.681 6.06067ZM434.786 280L433.725 276.061L429.788 275L433.725 273.939L434.786 270L435.846 273.939L439.783 275L435.846 276.061L434.786 280ZM433.725 186.061L434.786 190L435.846 186.061L439.783 185L435.846 183.939L434.786 180L433.725 183.939L429.788 185L433.725 186.061ZM434.786 100L433.725 96.0607L429.788 95L433.725 93.9393L434.786 90L435.846 93.9393L439.783 95L435.846 96.0607L434.786 100ZM433.725 6.06067L434.786 10L435.846 6.06067L439.783 5L435.846 3.93933L434.786 0L433.725 3.93933L429.788 5L433.725 6.06067ZM344.83 280L343.77 276.061L339.832 275L343.77 273.939L344.83 270L345.89 273.939L349.827 275L345.89 276.061L344.83 280ZM343.77 186.061L344.83 190L345.89 186.061L349.827 185L345.89 183.939L344.83 180L343.77 183.939L339.832 185L343.77 186.061ZM344.83 100L343.77 96.0607L339.832 95L343.77 93.9393L344.83 90L345.89 93.9393L349.827 95L345.89 96.0607L344.83 100ZM343.77 6.06067L344.83 10L345.89 6.06067L349.827 5L345.89 3.93933L344.83 0L343.77 3.93933L339.832 5L343.77 6.06067Z" fill="white" fill-opacity="0.5"/>
<path fill-rule="evenodd" clip-rule="evenodd" d="M273.805 276.061L274.865 280L275.925 276.061L279.862 275L275.925 273.939L274.865 270L273.805 273.939L269.867 275L273.805 276.061ZM273.805 186.061L274.865 190L275.925 186.061L279.862 185L275.925 183.939L274.865 180L273.805 183.939L269.867 185L273.805 186.061ZM274.865 100L273.805 96.0607L269.867 95L273.805 93.9393L274.865 90L275.925 93.9393L279.862 95L275.925 96.0607L274.865 100ZM273.805 6.06067L274.865 10L275.925 6.06067L279.862 5L275.925 3.93933L274.865 0L273.805 3.93933L269.867 5L273.805 6.06067ZM184.909 280L183.849 276.061L179.912 275L183.849 273.939L184.909 270L185.969 273.939L189.907 275L185.969 276.061L184.909 280ZM183.849 186.061L184.909 190L185.969 186.061L189.907 185L185.969 183.939L184.909 180L183.849 183.939L179.912 185L183.849 186.061ZM184.909 100L183.849 96.0607L179.912 95L183.849 93.9393L184.909 90L185.969 93.9393L189.907 95L185.969 96.0607L184.909 100ZM183.849 6.06067L184.909 10L185.969 6.06067L189.907 5L185.969 3.93933L184.909 0L183.849 3.93933L179.912 5L183.849 6.06067ZM94.9535 280L93.8934 276.061L89.956 275L93.8934 273.939L94.9535 270L96.0136 273.939L99.9511 275L96.0136 276.061L94.9535 280ZM93.8934 186.061L94.9535 190L96.0136 186.061L99.9511 185L96.0136 183.939L94.9535 180L93.8934 183.939L89.956 185L93.8934 186.061ZM94.9535 100L93.8934 96.0607L89.956 95L93.8934 93.9393L94.9535 90L96.0136 93.9393L99.9511 95L96.0136 96.0607L94.9535 100ZM93.8934 6.06067L94.9535 10L96.0136 6.06067L99.9511 5L96.0136 3.93933L94.9535 0L93.8934 3.93933L89.956 5L93.8934 6.06067ZM4.99789 280L3.93775 276.061L0.000358582 275L3.93775 273.939L4.99789 270L6.05804 273.939L9.99543 275L6.05804 276.061L4.99789 280ZM3.93775 186.061L4.99789 190L6.05804 186.061L9.99543 185L6.05804 183.939L4.99789 180L3.93775 183.939L0.000358582 185L3.93775 186.061ZM4.99789 100L3.93775 96.0607L0.000358582 95L3.93775 93.9393L4.99789 90L6.05804 93.9393L9.99543 95L6.05804 96.0607L4.99789 100ZM3.93775 6.06067L4.99789 10L6.05804 6.06067L9.99543 5L6.05804 3.93933L4.99789 0L3.93775 3.93933L0.000358582 5L3.93775 6.06067Z" fill="white" fill-opacity="0.5"/>
<path fill-rule="evenodd" clip-rule="evenodd" d="M1133.64 276.061L1134.7 280L1135.76 276.061L1139.7 275L1135.76 273.939L1134.7 270L1133.64 273.939L1129.7 275L1133.64 276.061ZM1133.64 186.061L1134.7 190L1135.76 186.061L1139.7 185L1135.76 183.939L1134.7 180L1133.64 183.939L1129.7 185L1133.64 186.061ZM1134.7 100L1133.64 96.0607L1129.7 95L1133.64 93.9393L1134.7 90L1135.76 93.9393L1139.7 95L1135.76 96.0607L1134.7 100ZM1133.64 6.06067L1134.7 10L1135.76 6.06067L1139.7 5L1135.76 3.93933L1134.7 0L1133.64 3.93933L1129.7 5L1133.64 6.06067ZM1044.74 280L1043.68 276.061L1039.74 275L1043.68 273.939L1044.74 270L1045.8 273.939L1049.74 275L1045.8 276.061L1044.74 280ZM1043.68 186.061L1044.74 190L1045.8 186.061L1049.74 185L1045.8 183.939L1044.74 180L1043.68 183.939L1039.74 185L1043.68 186.061ZM1044.74 100L1043.68 96.0607L1039.74 95L1043.68 93.9393L1044.74 90L1045.8 93.9393L1049.74 95L1045.8 96.0607L1044.74 100ZM1043.68 6.06067L1044.74 10L1045.8 6.06067L1049.74 5L1045.8 3.93933L1044.74 0L1043.68 3.93933L1039.74 5L1043.68 6.06067ZM954.787 280L953.726 276.061L949.789 275L953.726 273.939L954.787 270L955.847 273.939L959.784 275L955.847 276.061L954.787 280ZM953.726 186.061L954.787 190L955.847 186.061L959.784 185L955.847 183.939L954.787 180L953.726 183.939L949.789 185L953.726 186.061ZM954.787 100L953.726 96.0607L949.789 95L953.726 93.9393L954.787 90L955.847 93.9393L959.784 95L955.847 96.0607L954.787 100ZM953.726 6.06067L954.787 10L955.847 6.06067L959.784 5L955.847 3.93933L954.787 0L953.726 3.93933L949.789 5L953.726 6.06067ZM864.831 280L863.771 276.061L859.833 275L863.771 273.939L864.831 270L865.891 273.939L869.828 275L865.891 276.061L864.831 280ZM863.771 186.061L864.831 190L865.891 186.061L869.828 185L865.891 183.939L864.831 180L863.771 183.939L859.833 185L863.771 186.061ZM864.831 100L863.771 96.0607L859.833 95L863.771 93.9393L864.831 90L865.891 93.9393L869.828 95L865.891 96.0607L864.831 100ZM863.771 6.06067L864.831 10L865.891 6.06067L869.828 5L865.891 3.93933L864.831 0L863.771 3.93933L859.833 5L863.771 6.06067Z" fill="white" fill-opacity="0.5"/>
<path fill-rule="evenodd" clip-rule="evenodd" d="M793.806 276.061L794.866 280L795.926 276.061L799.863 275L795.926 273.939L794.866 270L793.806 273.939L789.868 275L793.806 276.061ZM793.806 186.061L794.866 190L795.926 186.061L799.863 185L795.926 183.939L794.866 180L793.806 183.939L789.868 185L793.806 186.061ZM794.866 100L793.806 96.0607L789.868 95L793.806 93.9393L794.866 90L795.926 93.9393L799.863 95L795.926 96.0607L794.866 100ZM793.806 6.06067L794.866 10L795.926 6.06067L799.863 5L795.926 3.93933L794.866 0L793.806 3.93933L789.868 5L793.806 6.06067ZM704.91 280L703.85 276.061L699.913 275L703.85 273.939L704.91 270L705.97 273.939L709.908 275L705.97 276.061L704.91 280ZM703.85 186.061L704.91 190L705.97 186.061L709.908 185L705.97 183.939L704.91 180L703.85 183.939L699.913 185L703.85 186.061ZM704.91 100L703.85 96.0607L699.913 95L703.85 93.9393L704.91 90L705.97 93.9393L709.908 95L705.97 96.0607L704.91 100ZM703.85 6.06067L704.91 10L705.97 6.06067L709.908 5L705.97 3.93933L704.91 0L703.85 3.93933L699.913 5L703.85 6.06067ZM614.954 280L613.894 276.061L609.957 275L613.894 273.939L614.954 270L616.015 273.939L619.952 275L616.015 276.061L614.954 280ZM613.894 186.061L614.954 190L616.015 186.061L619.952 185L616.015 183.939L614.954 180L613.894 183.939L609.957 185L613.894 186.061ZM614.954 100L613.894 96.0607L609.957 95L613.894 93.9393L614.954 90L616.015 93.9393L619.952 95L616.015 96.0607L614.954 100ZM613.894 6.06067L614.954 10L616.015 6.06067L619.952 5L616.015 3.93933L614.954 0L613.894 3.93933L609.957 5L613.894 6.06067ZM524.999 280L523.939 276.061L520.001 275L523.939 273.939L524.999 270L526.059 273.939L529.996 275L526.059 276.061L524.999 280ZM523.939 186.061L524.999 190L526.059 186.061L529.996 185L526.059 183.939L524.999 180L523.939 183.939L520.001 185L523.939 186.061ZM524.999 100L523.939 96.0607L520.001 95L523.939 93.9393L524.999 90L526.059 93.9393L529.996 95L526.059 96.0607L524.999 100ZM523.939 6.06067L524.999 10L526.059 6.06067L529.996 5L526.059 3.93933L524.999 0L523.939 3.93933L520.001 5L523.939 6.06067Z" fill="white" fill-opacity="0.5"/>
<path fill-rule="evenodd" clip-rule="evenodd" d="M1473.64 276.061L1474.7 280L1475.76 276.061L1479.7 275L1475.76 273.939L1474.7 270L1473.64 273.939L1469.7 275L1473.64 276.061ZM1473.64 186.061L1474.7 190L1475.76 186.061L1479.7 185L1475.76 183.939L1474.7 180L1473.64 183.939L1469.7 185L1473.64 186.061ZM1474.7 100L1473.64 96.0607L1469.7 95L1473.64 93.9393L1474.7 90L1475.76 93.9393L1479.7 95L1475.76 96.0607L1474.7 100ZM1473.64 6.06067L1474.7 10L1475.76 6.06067L1479.7 5L1475.76 3.93933L1474.7 0L1473.64 3.93933L1469.7 5L1473.64 6.06067ZM1384.74 280L1383.68 276.061L1379.74 275L1383.68 273.939L1384.74 270L1385.8 273.939L1389.74 275L1385.8 276.061L1384.74 280ZM1383.68 186.061L1384.74 190L1385.8 186.061L1389.74 185L1385.8 183.939L1384.74 180L1383.68 183.939L1379.74 185L1383.68 186.061ZM1384.74 100L1383.68 96.0607L1379.74 95L1383.68 93.9393L1384.74 90L1385.8 93.9393L1389.74 95L1385.8 96.0607L1384.74 100ZM1383.68 6.06067L1384.74 10L1385.8 6.06067L1389.74 5L1385.8 3.93933L1384.74 0L1383.68 3.93933L1379.74 5L1383.68 6.06067ZM1294.79 280L1293.73 276.061L1289.79 275L1293.73 273.939L1294.79 270L1295.85 273.939L1299.78 275L1295.85 276.061L1294.79 280ZM1293.73 186.061L1294.79 190L1295.85 186.061L1299.78 185L1295.85 183.939L1294.79 180L1293.73 183.939L1289.79 185L1293.73 186.061ZM1294.79 100L1293.73 96.0607L1289.79 95L1293.73 93.9393L1294.79 90L1295.85 93.9393L1299.78 95L1295.85 96.0607L1294.79 100ZM1293.73 6.06067L1294.79 10L1295.85 6.06067L1299.78 5L1295.85 3.93933L1294.79 0L1293.73 3.93933L1289.79 5L1293.73 6.06067ZM1204.83 280L1203.77 276.061L1199.83 275L1203.77 273.939L1204.83 270L1205.89 273.939L1209.83 275L1205.89 276.061L1204.83 280ZM1203.77 186.061L1204.83 190L1205.89 186.061L1209.83 185L1205.89 183.939L1204.83 180L1203.77 183.939L1199.83 185L1203.77 186.061ZM1204.83 100L1203.77 96.0607L1199.83 95L1203.77 93.9393L1204.83 90L1205.89 93.9393L1209.83 95L1205.89 96.0607L1204.83 100ZM1203.77 6.06067L1204.83 10L1205.89 6.06067L1209.83 5L1205.89 3.93933L1204.83 0L1203.77 3.93933L1199.83 5L1203.77 6.06067Z" fill="white" fill-opacity="0.5"/>
<path fill-rule="evenodd" clip-rule="evenodd" d="M1133.81 276.061L1134.87 280L1135.93 276.061L1139.86 275L1135.93 273.939L1134.87 270L1133.81 273.939L1129.87 275L1133.81 276.061ZM1133.81 186.061L1134.87 190L1135.93 186.061L1139.86 185L1135.93 183.939L1134.87 180L1133.81 183.939L1129.87 185L1133.81 186.061ZM1134.87 100L1133.81 96.0607L1129.87 95L1133.81 93.9393L1134.87 90L1135.93 93.9393L1139.86 95L1135.93 96.0607L1134.87 100ZM1133.81 6.06067L1134.87 10L1135.93 6.06067L1139.86 5L1135.93 3.93933L1134.87 0L1133.81 3.93933L1129.87 5L1133.81 6.06067ZM1044.91 280L1043.85 276.061L1039.91 275L1043.85 273.939L1044.91 270L1045.97 273.939L1049.91 275L1045.97 276.061L1044.91 280ZM1043.85 186.061L1044.91 190L1045.97 186.061L1049.91 185L1045.97 183.939L1044.91 180L1043.85 183.939L1039.91 185L1043.85 186.061ZM1044.91 100L1043.85 96.0607L1039.91 95L1043.85 93.9393L1044.91 90L1045.97 93.9393L1049.91 95L1045.97 96.0607L1044.91 100ZM1043.85 6.06067L1044.91 10L1045.97 6.06067L1049.91 5L1045.97 3.93933L1044.91 0L1043.85 3.93933L1039.91 5L1043.85 6.06067ZM954.954 280L953.894 276.061L949.957 275L953.894 273.939L954.954 270L956.015 273.939L959.952 275L956.015 276.061L954.954 280ZM953.894 186.061L954.954 190L956.015 186.061L959.952 185L956.015 183.939L954.954 180L953.894 183.939L949.957 185L953.894 186.061ZM954.954 100L953.894 96.0607L949.957 95L953.894 93.9393L954.954 90L956.015 93.9393L959.952 95L956.015 96.0607L954.954 100ZM953.894 6.06067L954.954 10L956.015 6.06067L959.952 5L956.015 3.93933L954.954 0L953.894 3.93933L949.957 5L953.894 6.06067ZM864.999 280L863.939 276.061L860.001 275L863.939 273.939L864.999 270L866.059 273.939L869.996 275L866.059 276.061L864.999 280ZM863.939 186.061L864.999 190L866.059 186.061L869.996 185L866.059 183.939L864.999 180L863.939 183.939L860.001 185L863.939 186.061ZM864.999 100L863.939 96.0607L860.001 95L863.939 93.9393L864.999 90L866.059 93.9393L869.996 95L866.059 96.0607L864.999 100ZM863.939 6.06067L864.999 10L866.059 6.06067L869.996 5L866.059 3.93933L864.999 0L863.939 3.93933L860.001 5L863.939 6.06067Z" fill="white" fill-opacity="0.5"/>
</svg>
