<svg width="1440" height="756" viewBox="0 0 1440 756" fill="none" xmlns="http://www.w3.org/2000/svg">
<path fill-rule="evenodd" clip-rule="evenodd" d="M0 0H360V377.993H0V0ZM0.5625 0.674987H44.4375V53.324H0.5625V0.674987ZM45.5625 0.674987H89.4375V53.324H45.5625V0.674987ZM134.438 0.674987H90.5625V53.324H134.438V0.674987ZM135.562 0.674987H179.438V53.324H135.562V0.674987ZM224.438 0.674987H180.562V53.324H224.438V0.674987ZM225.562 0.674987H269.438V53.324H225.562V0.674987ZM314.438 0.674987H270.562V53.324H314.438V0.674987ZM315.562 0.674987H359.438V53.324H315.562V0.674987ZM44.4375 54.674H0.5625V107.323H44.4375V54.674ZM45.5625 54.674H89.4375V107.323H45.5625V54.674ZM134.438 54.674H90.5625V107.323H134.438V54.674ZM135.562 54.674H179.438V107.323H135.562V54.674ZM224.438 54.674H180.562V107.323H224.438V54.674ZM225.562 54.674H269.438V107.323H225.562V54.674ZM314.438 54.674H270.562V107.323H314.438V54.674ZM315.562 54.674H359.438V107.323H315.562V54.674ZM44.4375 108.673H0.5625V161.322H44.4375V108.673ZM45.5625 108.673H89.4375V161.322H45.5625V108.673ZM134.438 108.673H90.5625V161.322H134.438V108.673ZM135.562 108.673H179.438V161.322H135.562V108.673ZM224.438 108.673H180.562V161.322H224.438V108.673ZM225.562 108.673H269.438V161.322H225.562V108.673ZM314.438 108.673H270.562V161.322H314.438V108.673ZM315.562 108.673H359.438V161.322H315.562V108.673ZM44.4375 162.672H0.5625V215.321H44.4375V162.672ZM45.5625 162.672H89.4375V215.321H45.5625V162.672ZM134.438 162.672H90.5625V215.321H134.438V162.672ZM135.562 162.672H179.438V215.321H135.562V162.672ZM224.438 162.672H180.562V215.321H224.438V162.672ZM225.562 162.672H269.438V215.321H225.562V162.672ZM314.438 162.672H270.562V215.321H314.438V162.672ZM315.562 162.672H359.438V215.321H315.562V162.672ZM44.4375 216.671H0.5625V269.32H44.4375V216.671ZM45.5625 216.671H89.4375V269.32H45.5625V216.671ZM134.438 216.671H90.5625V269.32H134.438V216.671ZM135.562 216.671H179.438V269.32H135.562V216.671ZM224.438 216.671H180.562V269.32H224.438V216.671ZM225.562 216.671H269.438V269.32H225.562V216.671ZM314.438 216.671H270.562V269.32H314.438V216.671ZM315.562 216.671H359.438V269.32H315.562V216.671ZM44.4375 270.67H0.5625V323.319H44.4375V270.67ZM45.5625 270.67H89.4375V323.319H45.5625V270.67ZM134.438 270.67H90.5625V323.319H134.438V270.67ZM135.562 270.67H179.438V323.319H135.562V270.67ZM224.438 270.67H180.562V323.319H224.438V270.67ZM225.562 270.67H269.438V323.319H225.562V270.67ZM314.438 270.67H270.562V323.319H314.438V270.67ZM315.562 270.67H359.438V323.319H315.562V270.67ZM44.4375 324.669H0.5625V377.318H44.4375V324.669ZM45.5625 324.669H89.4375V377.318H45.5625V324.669ZM134.438 324.669H90.5625V377.318H134.438V324.669ZM135.562 324.669H179.438V377.318H135.562V324.669ZM224.438 324.669H180.562V377.318H224.438V324.669ZM225.562 324.669H269.438V377.318H225.562V324.669ZM314.438 324.669H270.562V377.318H314.438V324.669ZM315.562 324.669H359.438V377.318H315.562V324.669Z" fill="white" fill-opacity="0.4"/>
<path fill-rule="evenodd" clip-rule="evenodd" d="M360 0H720V377.993H360V0ZM360.562 0.674987H404.438V53.324H360.562V0.674987ZM405.562 0.674987H449.438V53.324H405.562V0.674987ZM494.438 0.674987H450.562V53.324H494.438V0.674987ZM495.562 0.674987H539.438V53.324H495.562V0.674987ZM584.438 0.674987H540.562V53.324H584.438V0.674987ZM585.562 0.674987H629.438V53.324H585.562V0.674987ZM674.438 0.674987H630.562V53.324H674.438V0.674987ZM675.562 0.674987H719.438V53.324H675.562V0.674987ZM404.438 54.674H360.562V107.323H404.438V54.674ZM405.562 54.674H449.438V107.323H405.562V54.674ZM494.438 54.674H450.562V107.323H494.438V54.674ZM495.562 54.674H539.438V107.323H495.562V54.674ZM584.438 54.674H540.562V107.323H584.438V54.674ZM585.562 54.674H629.438V107.323H585.562V54.674ZM674.438 54.674H630.562V107.323H674.438V54.674ZM675.562 54.674H719.438V107.323H675.562V54.674ZM404.438 108.673H360.562V161.322H404.438V108.673ZM405.562 108.673H449.438V161.322H405.562V108.673ZM494.438 108.673H450.562V161.322H494.438V108.673ZM495.562 108.673H539.438V161.322H495.562V108.673ZM584.438 108.673H540.562V161.322H584.438V108.673ZM585.562 108.673H629.438V161.322H585.562V108.673ZM674.438 108.673H630.562V161.322H674.438V108.673ZM675.562 108.673H719.438V161.322H675.562V108.673ZM404.438 162.672H360.562V215.321H404.438V162.672ZM405.562 162.672H449.438V215.321H405.562V162.672ZM494.438 162.672H450.562V215.321H494.438V162.672ZM495.562 162.672H539.438V215.321H495.562V162.672ZM584.438 162.672H540.562V215.321H584.438V162.672ZM585.562 162.672H629.438V215.321H585.562V162.672ZM674.438 162.672H630.562V215.321H674.438V162.672ZM675.562 162.672H719.438V215.321H675.562V162.672ZM404.438 216.671H360.562V269.32H404.438V216.671ZM405.562 216.671H449.438V269.32H405.562V216.671ZM494.438 216.671H450.562V269.32H494.438V216.671ZM495.562 216.671H539.438V269.32H495.562V216.671ZM584.438 216.671H540.562V269.32H584.438V216.671ZM585.562 216.671H629.438V269.32H585.562V216.671ZM674.438 216.671H630.562V269.32H674.438V216.671ZM675.562 216.671H719.438V269.32H675.562V216.671ZM404.438 270.67H360.562V323.319H404.438V270.67ZM405.562 270.67H449.438V323.319H405.562V270.67ZM494.438 270.67H450.562V323.319H494.438V270.67ZM495.562 270.67H539.438V323.319H495.562V270.67ZM584.438 270.67H540.562V323.319H584.438V270.67ZM585.562 270.67H629.438V323.319H585.562V270.67ZM674.438 270.67H630.562V323.319H674.438V270.67ZM675.562 270.67H719.438V323.319H675.562V270.67ZM404.438 324.669H360.562V377.318H404.438V324.669ZM405.562 324.669H449.438V377.318H405.562V324.669ZM494.438 324.669H450.562V377.318H494.438V324.669ZM495.562 324.669H539.438V377.318H495.562V324.669ZM584.438 324.669H540.562V377.318H584.438V324.669ZM585.562 324.669H629.438V377.318H585.562V324.669ZM674.438 324.669H630.562V377.318H674.438V324.669ZM675.562 324.669H719.438V377.318H675.562V324.669Z" fill="white" fill-opacity="0.4"/>
<path fill-rule="evenodd" clip-rule="evenodd" d="M720 0H1080V377.993H720V0ZM720.563 0.674987H764.438V53.324H720.563V0.674987ZM765.563 0.674987H809.437V53.324H765.563V0.674987ZM854.438 0.674987H810.562V53.324H854.438V0.674987ZM855.563 0.674987H899.438V53.324H855.563V0.674987ZM944.437 0.674987H900.563V53.324H944.437V0.674987ZM945.563 0.674987H989.437V53.324H945.563V0.674987ZM1034.44 0.674987H990.562V53.324H1034.44V0.674987ZM1035.56 0.674987H1079.44V53.324H1035.56V0.674987ZM764.438 54.674H720.563V107.323H764.438V54.674ZM765.563 54.674H809.437V107.323H765.563V54.674ZM854.438 54.674H810.562V107.323H854.438V54.674ZM855.563 54.674H899.438V107.323H855.563V54.674ZM944.437 54.674H900.563V107.323H944.437V54.674ZM945.563 54.674H989.437V107.323H945.563V54.674ZM1034.44 54.674H990.562V107.323H1034.44V54.674ZM1035.56 54.674H1079.44V107.323H1035.56V54.674ZM764.438 108.673H720.563V161.322H764.438V108.673ZM765.563 108.673H809.437V161.322H765.563V108.673ZM854.438 108.673H810.562V161.322H854.438V108.673ZM855.563 108.673H899.438V161.322H855.563V108.673ZM944.437 108.673H900.563V161.322H944.437V108.673ZM945.563 108.673H989.437V161.322H945.563V108.673ZM1034.44 108.673H990.562V161.322H1034.44V108.673ZM1035.56 108.673H1079.44V161.322H1035.56V108.673ZM764.438 162.672H720.563V215.321H764.438V162.672ZM765.563 162.672H809.437V215.321H765.563V162.672ZM854.438 162.672H810.562V215.321H854.438V162.672ZM855.563 162.672H899.438V215.321H855.563V162.672ZM944.437 162.672H900.563V215.321H944.437V162.672ZM945.563 162.672H989.437V215.321H945.563V162.672ZM1034.44 162.672H990.562V215.321H1034.44V162.672ZM1035.56 162.672H1079.44V215.321H1035.56V162.672ZM764.438 216.671H720.563V269.32H764.438V216.671ZM765.563 216.671H809.437V269.32H765.563V216.671ZM854.438 216.671H810.562V269.32H854.438V216.671ZM855.563 216.671H899.438V269.32H855.563V216.671ZM944.437 216.671H900.563V269.32H944.437V216.671ZM945.563 216.671H989.437V269.32H945.563V216.671ZM1034.44 216.671H990.562V269.32H1034.44V216.671ZM1035.56 216.671H1079.44V269.32H1035.56V216.671ZM764.438 270.67H720.563V323.319H764.438V270.67ZM765.563 270.67H809.437V323.319H765.563V270.67ZM854.438 270.67H810.562V323.319H854.438V270.67ZM855.563 270.67H899.438V323.319H855.563V270.67ZM944.437 270.67H900.563V323.319H944.437V270.67ZM945.563 270.67H989.437V323.319H945.563V270.67ZM1034.44 270.67H990.562V323.319H1034.44V270.67ZM1035.56 270.67H1079.44V323.319H1035.56V270.67ZM764.438 324.669H720.563V377.318H764.438V324.669ZM765.563 324.669H809.437V377.318H765.563V324.669ZM854.438 324.669H810.562V377.318H854.438V324.669ZM855.563 324.669H899.438V377.318H855.563V324.669ZM944.437 324.669H900.563V377.318H944.437V324.669ZM945.563 324.669H989.437V377.318H945.563V324.669ZM1034.44 324.669H990.562V377.318H1034.44V324.669ZM1035.56 324.669H1079.44V377.318H1035.56V324.669Z" fill="white" fill-opacity="0.4"/>
<path fill-rule="evenodd" clip-rule="evenodd" d="M1080 0H1440V377.993H1080V0ZM1080.56 0.674987H1124.44V53.324H1080.56V0.674987ZM1125.56 0.674987H1169.44V53.324H1125.56V0.674987ZM1214.44 0.674987H1170.56V53.324H1214.44V0.674987ZM1215.56 0.674987H1259.44V53.324H1215.56V0.674987ZM1304.44 0.674987H1260.56V53.324H1304.44V0.674987ZM1305.56 0.674987H1349.44V53.324H1305.56V0.674987ZM1394.44 0.674987H1350.56V53.324H1394.44V0.674987ZM1395.56 0.674987H1439.44V53.324H1395.56V0.674987ZM1124.44 54.674H1080.56V107.323H1124.44V54.674ZM1125.56 54.674H1169.44V107.323H1125.56V54.674ZM1214.44 54.674H1170.56V107.323H1214.44V54.674ZM1215.56 54.674H1259.44V107.323H1215.56V54.674ZM1304.44 54.674H1260.56V107.323H1304.44V54.674ZM1305.56 54.674H1349.44V107.323H1305.56V54.674ZM1394.44 54.674H1350.56V107.323H1394.44V54.674ZM1395.56 54.674H1439.44V107.323H1395.56V54.674ZM1124.44 108.673H1080.56V161.322H1124.44V108.673ZM1125.56 108.673H1169.44V161.322H1125.56V108.673ZM1214.44 108.673H1170.56V161.322H1214.44V108.673ZM1215.56 108.673H1259.44V161.322H1215.56V108.673ZM1304.44 108.673H1260.56V161.322H1304.44V108.673ZM1305.56 108.673H1349.44V161.322H1305.56V108.673ZM1394.44 108.673H1350.56V161.322H1394.44V108.673ZM1395.56 108.673H1439.44V161.322H1395.56V108.673ZM1124.44 162.672H1080.56V215.321H1124.44V162.672ZM1125.56 162.672H1169.44V215.321H1125.56V162.672ZM1214.44 162.672H1170.56V215.321H1214.44V162.672ZM1215.56 162.672H1259.44V215.321H1215.56V162.672ZM1304.44 162.672H1260.56V215.321H1304.44V162.672ZM1305.56 162.672H1349.44V215.321H1305.56V162.672ZM1394.44 162.672H1350.56V215.321H1394.44V162.672ZM1395.56 162.672H1439.44V215.321H1395.56V162.672ZM1124.44 216.671H1080.56V269.32H1124.44V216.671ZM1125.56 216.671H1169.44V269.32H1125.56V216.671ZM1214.44 216.671H1170.56V269.32H1214.44V216.671ZM1215.56 216.671H1259.44V269.32H1215.56V216.671ZM1304.44 216.671H1260.56V269.32H1304.44V216.671ZM1305.56 216.671H1349.44V269.32H1305.56V216.671ZM1394.44 216.671H1350.56V269.32H1394.44V216.671ZM1395.56 216.671H1439.44V269.32H1395.56V216.671ZM1124.44 270.67H1080.56V323.319H1124.44V270.67ZM1125.56 270.67H1169.44V323.319H1125.56V270.67ZM1214.44 270.67H1170.56V323.319H1214.44V270.67ZM1215.56 270.67H1259.44V323.319H1215.56V270.67ZM1304.44 270.67H1260.56V323.319H1304.44V270.67ZM1305.56 270.67H1349.44V323.319H1305.56V270.67ZM1394.44 270.67H1350.56V323.319H1394.44V270.67ZM1395.56 270.67H1439.44V323.319H1395.56V270.67ZM1124.44 324.669H1080.56V377.318H1124.44V324.669ZM1125.56 324.669H1169.44V377.318H1125.56V324.669ZM1214.44 324.669H1170.56V377.318H1214.44V324.669ZM1215.56 324.669H1259.44V377.318H1215.56V324.669ZM1304.44 324.669H1260.56V377.318H1304.44V324.669ZM1305.56 324.669H1349.44V377.318H1305.56V324.669ZM1394.44 324.669H1350.56V377.318H1394.44V324.669ZM1395.56 324.669H1439.44V377.318H1395.56V324.669Z" fill="white" fill-opacity="0.4"/>
<path fill-rule="evenodd" clip-rule="evenodd" d="M0 378H360V755.993H0V378ZM0.5625 378.675H44.4375V431.324H0.5625V378.675ZM45.5625 378.675H89.4375V431.324H45.5625V378.675ZM134.438 378.675H90.5625V431.324H134.438V378.675ZM135.562 378.675H179.438V431.324H135.562V378.675ZM224.438 378.675H180.562V431.324H224.438V378.675ZM225.562 378.675H269.438V431.324H225.562V378.675ZM314.438 378.675H270.562V431.324H314.438V378.675ZM315.562 378.675H359.438V431.324H315.562V378.675ZM44.4375 432.674H0.5625V485.323H44.4375V432.674ZM45.5625 432.674H89.4375V485.323H45.5625V432.674ZM134.438 432.674H90.5625V485.323H134.438V432.674ZM135.562 432.674H179.438V485.323H135.562V432.674ZM224.438 432.674H180.562V485.323H224.438V432.674ZM225.562 432.674H269.438V485.323H225.562V432.674ZM314.438 432.674H270.562V485.323H314.438V432.674ZM315.562 432.674H359.438V485.323H315.562V432.674ZM44.4375 486.673H0.5625V539.322H44.4375V486.673ZM45.5625 486.673H89.4375V539.322H45.5625V486.673ZM134.438 486.673H90.5625V539.322H134.438V486.673ZM135.562 486.673H179.438V539.322H135.562V486.673ZM224.438 486.673H180.562V539.322H224.438V486.673ZM225.562 486.673H269.438V539.322H225.562V486.673ZM314.438 486.673H270.562V539.322H314.438V486.673ZM315.562 486.673H359.438V539.322H315.562V486.673ZM44.4375 540.672H0.5625V593.321H44.4375V540.672ZM45.5625 540.672H89.4375V593.321H45.5625V540.672ZM134.438 540.672H90.5625V593.321H134.438V540.672ZM135.562 540.672H179.438V593.321H135.562V540.672ZM224.438 540.672H180.562V593.321H224.438V540.672ZM225.562 540.672H269.438V593.321H225.562V540.672ZM314.438 540.672H270.562V593.321H314.438V540.672ZM315.562 540.672H359.438V593.321H315.562V540.672ZM44.4375 594.671H0.5625V647.32H44.4375V594.671ZM45.5625 594.671H89.4375V647.32H45.5625V594.671ZM134.438 594.671H90.5625V647.32H134.438V594.671ZM135.562 594.671H179.438V647.32H135.562V594.671ZM224.438 594.671H180.562V647.32H224.438V594.671ZM225.562 594.671H269.438V647.32H225.562V594.671ZM314.438 594.671H270.562V647.32H314.438V594.671ZM315.562 594.671H359.438V647.32H315.562V594.671ZM44.4375 648.67H0.5625V701.319H44.4375V648.67ZM45.5625 648.67H89.4375V701.319H45.5625V648.67ZM134.438 648.67H90.5625V701.319H134.438V648.67ZM135.562 648.67H179.438V701.319H135.562V648.67ZM224.438 648.67H180.562V701.319H224.438V648.67ZM225.562 648.67H269.438V701.319H225.562V648.67ZM314.438 648.67H270.562V701.319H314.438V648.67ZM315.562 648.67H359.438V701.319H315.562V648.67ZM44.4375 702.669H0.5625V755.318H44.4375V702.669ZM45.5625 702.669H89.4375V755.318H45.5625V702.669ZM134.438 702.669H90.5625V755.318H134.438V702.669ZM135.562 702.669H179.438V755.318H135.562V702.669ZM224.438 702.669H180.562V755.318H224.438V702.669ZM225.562 702.669H269.438V755.318H225.562V702.669ZM314.438 702.669H270.562V755.318H314.438V702.669ZM315.562 702.669H359.438V755.318H315.562V702.669Z" fill="white" fill-opacity="0.4"/>
<path fill-rule="evenodd" clip-rule="evenodd" d="M360 378H720V755.993H360V378ZM360.562 378.675H404.438V431.324H360.562V378.675ZM405.562 378.675H449.438V431.324H405.562V378.675ZM494.438 378.675H450.562V431.324H494.438V378.675ZM495.562 378.675H539.438V431.324H495.562V378.675ZM584.438 378.675H540.562V431.324H584.438V378.675ZM585.562 378.675H629.438V431.324H585.562V378.675ZM674.438 378.675H630.562V431.324H674.438V378.675ZM675.562 378.675H719.438V431.324H675.562V378.675ZM404.438 432.674H360.562V485.323H404.438V432.674ZM405.562 432.674H449.438V485.323H405.562V432.674ZM494.438 432.674H450.562V485.323H494.438V432.674ZM495.562 432.674H539.438V485.323H495.562V432.674ZM584.438 432.674H540.562V485.323H584.438V432.674ZM585.562 432.674H629.438V485.323H585.562V432.674ZM674.438 432.674H630.562V485.323H674.438V432.674ZM675.562 432.674H719.438V485.323H675.562V432.674ZM404.438 486.673H360.562V539.322H404.438V486.673ZM405.562 486.673H449.438V539.322H405.562V486.673ZM494.438 486.673H450.562V539.322H494.438V486.673ZM495.562 486.673H539.438V539.322H495.562V486.673ZM584.438 486.673H540.562V539.322H584.438V486.673ZM585.562 486.673H629.438V539.322H585.562V486.673ZM674.438 486.673H630.562V539.322H674.438V486.673ZM675.562 486.673H719.438V539.322H675.562V486.673ZM404.438 540.672H360.562V593.321H404.438V540.672ZM405.562 540.672H449.438V593.321H405.562V540.672ZM494.438 540.672H450.562V593.321H494.438V540.672ZM495.562 540.672H539.438V593.321H495.562V540.672ZM584.438 540.672H540.562V593.321H584.438V540.672ZM585.562 540.672H629.438V593.321H585.562V540.672ZM674.438 540.672H630.562V593.321H674.438V540.672ZM675.562 540.672H719.438V593.321H675.562V540.672ZM404.438 594.671H360.562V647.32H404.438V594.671ZM405.562 594.671H449.438V647.32H405.562V594.671ZM494.438 594.671H450.562V647.32H494.438V594.671ZM495.562 594.671H539.438V647.32H495.562V594.671ZM584.438 594.671H540.562V647.32H584.438V594.671ZM585.562 594.671H629.438V647.32H585.562V594.671ZM674.438 594.671H630.562V647.32H674.438V594.671ZM675.562 594.671H719.438V647.32H675.562V594.671ZM404.438 648.67H360.562V701.319H404.438V648.67ZM405.562 648.67H449.438V701.319H405.562V648.67ZM494.438 648.67H450.562V701.319H494.438V648.67ZM495.562 648.67H539.438V701.319H495.562V648.67ZM584.438 648.67H540.562V701.319H584.438V648.67ZM585.562 648.67H629.438V701.319H585.562V648.67ZM674.438 648.67H630.562V701.319H674.438V648.67ZM675.562 648.67H719.438V701.319H675.562V648.67ZM404.438 702.669H360.562V755.318H404.438V702.669ZM405.562 702.669H449.438V755.318H405.562V702.669ZM494.438 702.669H450.562V755.318H494.438V702.669ZM495.562 702.669H539.438V755.318H495.562V702.669ZM584.438 702.669H540.562V755.318H584.438V702.669ZM585.562 702.669H629.438V755.318H585.562V702.669ZM674.438 702.669H630.562V755.318H674.438V702.669ZM675.562 702.669H719.438V755.318H675.562V702.669Z" fill="white" fill-opacity="0.4"/>
<path fill-rule="evenodd" clip-rule="evenodd" d="M720 378H1080V755.993H720V378ZM720.562 378.675H764.438V431.324H720.562V378.675ZM765.562 378.675H809.438V431.324H765.562V378.675ZM854.438 378.675H810.562V431.324H854.438V378.675ZM855.562 378.675H899.438V431.324H855.562V378.675ZM944.438 378.675H900.562V431.324H944.438V378.675ZM945.562 378.675H989.438V431.324H945.562V378.675ZM1034.44 378.675H990.562V431.324H1034.44V378.675ZM1035.56 378.675H1079.44V431.324H1035.56V378.675ZM764.438 432.674H720.562V485.323H764.438V432.674ZM765.562 432.674H809.438V485.323H765.562V432.674ZM854.438 432.674H810.562V485.323H854.438V432.674ZM855.562 432.674H899.438V485.323H855.562V432.674ZM944.438 432.674H900.562V485.323H944.438V432.674ZM945.562 432.674H989.438V485.323H945.562V432.674ZM1034.44 432.674H990.562V485.323H1034.44V432.674ZM1035.56 432.674H1079.44V485.323H1035.56V432.674ZM764.438 486.673H720.562V539.322H764.438V486.673ZM765.562 486.673H809.438V539.322H765.562V486.673ZM854.438 486.673H810.562V539.322H854.438V486.673ZM855.562 486.673H899.438V539.322H855.562V486.673ZM944.438 486.673H900.562V539.322H944.438V486.673ZM945.562 486.673H989.438V539.322H945.562V486.673ZM1034.44 486.673H990.562V539.322H1034.44V486.673ZM1035.56 486.673H1079.44V539.322H1035.56V486.673ZM764.438 540.672H720.562V593.321H764.438V540.672ZM765.562 540.672H809.438V593.321H765.562V540.672ZM854.438 540.672H810.562V593.321H854.438V540.672ZM855.562 540.672H899.438V593.321H855.562V540.672ZM944.438 540.672H900.562V593.321H944.438V540.672ZM945.562 540.672H989.438V593.321H945.562V540.672ZM1034.44 540.672H990.562V593.321H1034.44V540.672ZM1035.56 540.672H1079.44V593.321H1035.56V540.672ZM764.438 594.671H720.562V647.32H764.438V594.671ZM765.562 594.671H809.438V647.32H765.562V594.671ZM854.438 594.671H810.562V647.32H854.438V594.671ZM855.562 594.671H899.438V647.32H855.562V594.671ZM944.438 594.671H900.562V647.32H944.438V594.671ZM945.562 594.671H989.438V647.32H945.562V594.671ZM1034.44 594.671H990.562V647.32H1034.44V594.671ZM1035.56 594.671H1079.44V647.32H1035.56V594.671ZM764.438 648.67H720.562V701.319H764.438V648.67ZM765.562 648.67H809.438V701.319H765.562V648.67ZM854.438 648.67H810.562V701.319H854.438V648.67ZM855.562 648.67H899.438V701.319H855.562V648.67ZM944.438 648.67H900.562V701.319H944.438V648.67ZM945.562 648.67H989.438V701.319H945.562V648.67ZM1034.44 648.67H990.562V701.319H1034.44V648.67ZM1035.56 648.67H1079.44V701.319H1035.56V648.67ZM764.438 702.669H720.562V755.318H764.438V702.669ZM765.562 702.669H809.438V755.318H765.562V702.669ZM854.438 702.669H810.562V755.318H854.438V702.669ZM855.562 702.669H899.438V755.318H855.562V702.669ZM944.438 702.669H900.562V755.318H944.438V702.669ZM945.562 702.669H989.438V755.318H945.562V702.669ZM1034.44 702.669H990.562V755.318H1034.44V702.669ZM1035.56 702.669H1079.44V755.318H1035.56V702.669Z" fill="white" fill-opacity="0.4"/>
<path fill-rule="evenodd" clip-rule="evenodd" d="M1080 378.007H1440V756H1080V378.007ZM1080.56 378.682H1124.44V431.331H1080.56V378.682ZM1125.56 378.682H1169.44V431.331H1125.56V378.682ZM1214.44 378.682H1170.56V431.331H1214.44V378.682ZM1215.56 378.682H1259.44V431.331H1215.56V378.682ZM1304.44 378.682H1260.56V431.331H1304.44V378.682ZM1305.56 378.682H1349.44V431.331H1305.56V378.682ZM1394.44 378.682H1350.56V431.331H1394.44V378.682ZM1395.56 378.682H1439.44V431.331H1395.56V378.682ZM1124.44 432.681H1080.56V485.33H1124.44V432.681ZM1125.56 432.681H1169.44V485.33H1125.56V432.681ZM1214.44 432.681H1170.56V485.33H1214.44V432.681ZM1215.56 432.681H1259.44V485.33H1215.56V432.681ZM1304.44 432.681H1260.56V485.33H1304.44V432.681ZM1305.56 432.681H1349.44V485.33H1305.56V432.681ZM1394.44 432.681H1350.56V485.33H1394.44V432.681ZM1395.56 432.681H1439.44V485.33H1395.56V432.681ZM1124.44 486.68H1080.56V539.329H1124.44V486.68ZM1125.56 486.68H1169.44V539.329H1125.56V486.68ZM1214.44 486.68H1170.56V539.329H1214.44V486.68ZM1215.56 486.68H1259.44V539.329H1215.56V486.68ZM1304.44 486.68H1260.56V539.329H1304.44V486.68ZM1305.56 486.68H1349.44V539.329H1305.56V486.68ZM1394.44 486.68H1350.56V539.329H1394.44V486.68ZM1395.56 486.68H1439.44V539.329H1395.56V486.68ZM1124.44 540.679H1080.56V593.328H1124.44V540.679ZM1125.56 540.679H1169.44V593.328H1125.56V540.679ZM1214.44 540.679H1170.56V593.328H1214.44V540.679ZM1215.56 540.679H1259.44V593.328H1215.56V540.679ZM1304.44 540.679H1260.56V593.328H1304.44V540.679ZM1305.56 540.679H1349.44V593.328H1305.56V540.679ZM1394.44 540.679H1350.56V593.328H1394.44V540.679ZM1395.56 540.679H1439.44V593.328H1395.56V540.679ZM1124.44 594.678H1080.56V647.327H1124.44V594.678ZM1125.56 594.678H1169.44V647.327H1125.56V594.678ZM1214.44 594.678H1170.56V647.327H1214.44V594.678ZM1215.56 594.678H1259.44V647.327H1215.56V594.678ZM1304.44 594.678H1260.56V647.327H1304.44V594.678ZM1305.56 594.678H1349.44V647.327H1305.56V594.678ZM1394.44 594.678H1350.56V647.327H1394.44V594.678ZM1395.56 594.678H1439.44V647.327H1395.56V594.678ZM1124.44 648.677H1080.56V701.326H1124.44V648.677ZM1125.56 648.677H1169.44V701.326H1125.56V648.677ZM1214.44 648.677H1170.56V701.326H1214.44V648.677ZM1215.56 648.677H1259.44V701.326H1215.56V648.677ZM1304.44 648.677H1260.56V701.326H1304.44V648.677ZM1305.56 648.677H1349.44V701.326H1305.56V648.677ZM1394.44 648.677H1350.56V701.326H1394.44V648.677ZM1395.56 648.677H1439.44V701.326H1395.56V648.677ZM1124.44 702.676H1080.56V755.325H1124.44V702.676ZM1125.56 702.676H1169.44V755.325H1125.56V702.676ZM1214.44 702.676H1170.56V755.325H1214.44V702.676ZM1215.56 702.676H1259.44V755.325H1215.56V702.676ZM1304.44 702.676H1260.56V755.325H1304.44V702.676ZM1305.56 702.676H1349.44V755.325H1305.56V702.676ZM1394.44 702.676H1350.56V755.325H1394.44V702.676ZM1395.56 702.676H1439.44V755.325H1395.56V702.676Z" fill="white" fill-opacity="0.4"/>
</svg>
