<svg width="307" height="568" viewBox="0 0 307 568" fill="none" xmlns="http://www.w3.org/2000/svg">
<path d="M85.2432 137.916L150.243 175.485L176.243 160.231M214.28 137.916L176.243 160.231M176.243 160.231V55.8585L261.465 5.93188" stroke="white" stroke-width="2"/>
<path d="M277.354 3.95459L330.317 35.5913V46.4664M330.317 46.4664L258.095 87.9895M330.317 46.4664V3.95459" stroke="white" stroke-width="2"/>
<path d="M179.614 369.754L199.836 357.89V293.134" stroke="white" stroke-width="2"/>
<path d="M77.058 370.248L148.799 327.736M148.799 327.736L77.058 286.707L0.502441 331.196M148.799 327.736V255.071M6.7617 243.207L32.7617 227.666M148.799 255.071V243.207L77.058 201.189L32.7617 227.666M148.799 255.071L111.725 273.855L32.7617 227.666M32.7617 135.444L57.3173 120.841M111.725 88.4838L57.3173 120.841M57.3173 120.841V160.161L148.799 216.019L244.132 160.161V62.2847" stroke="white" stroke-width="2"/>
<path d="M244.613 135.939L264.836 148.297V217.008L209.465 249.633" stroke="white" stroke-width="2"/>
<path d="M195.984 561.057L247.984 528.926V480.482L276.391 463.675L201.28 508.658L116.54 457.743" stroke="white" stroke-width="2"/>
<path d="M306.725 505.693V439.948L267.243 416.714V367.282V437.476L216.206 468.618M216.206 468.618V362.339L309.132 307.469L366.428 340.813M216.206 468.618L199.836 477.516L133.391 437.476V389.032M399.169 359.867L366.428 340.813M366.428 340.813L381.354 332.679V267.429L331.28 238.758L281.206 267.429M133.391 367.282V389.032M133.391 389.032L74.1691 424.624V517.062M74.1691 517.062L43.3543 535.352L0.502441 511.624M74.1691 517.062L95.8358 530.49M227.28 520.522L153.132 566L95.8358 530.49M95.8358 530.49L43.3543 562.045L0.502441 538.812" stroke="white" stroke-width="2"/>
<path d="M381.354 267.923V247.656L310.095 205.638L239.317 247.656" stroke="white" stroke-width="2"/>
<path d="M110.761 86.0237C112.578 86.0237 114.095 87.5431 114.095 89.4729C114.095 91.4025 112.577 92.9211 110.761 92.9211C108.945 92.921 107.428 91.4024 107.428 89.4729C107.428 87.5433 108.945 86.0239 110.761 86.0237Z" fill="white" stroke="white" stroke-width="2"/>
<path d="M31.7983 132.49C33.6146 132.49 35.1323 134.009 35.1323 135.939C35.1322 137.869 33.6145 139.387 31.7983 139.387C29.9823 139.387 28.4655 137.869 28.4653 135.939C28.4653 134.01 29.9822 132.49 31.7983 132.49Z" fill="white" stroke="white" stroke-width="2"/>
<path d="M85.7246 135.456C87.009 135.456 88.0955 136.532 88.0957 137.916C88.0957 139.3 87.0091 140.377 85.7246 140.377C84.4402 140.377 83.3545 139.299 83.3545 137.916C83.3546 136.532 84.4403 135.456 85.7246 135.456Z" fill="white" stroke="white" stroke-width="2"/>
<mask id="path-12-inside-1_114_925" fill="white">
<ellipse cx="213.317" cy="138.41" rx="1.92593" ry="1.97729"/>
</mask>
<ellipse cx="213.317" cy="138.41" rx="1.92593" ry="1.97729" fill="white"/>
<path d="M215.243 138.41H213.243C213.243 138.418 213.242 138.42 213.242 138.418C213.243 138.418 213.243 138.416 213.246 138.413C213.249 138.41 213.256 138.404 213.27 138.398C213.285 138.391 213.303 138.388 213.317 138.388V140.388V142.388C215.535 142.388 217.243 140.557 217.243 138.41H215.243ZM213.317 140.388V138.388C213.331 138.388 213.349 138.391 213.364 138.398C213.378 138.404 213.385 138.41 213.388 138.413C213.391 138.416 213.391 138.418 213.392 138.418C213.392 138.42 213.391 138.418 213.391 138.41H211.391H209.391C209.391 140.557 211.1 142.388 213.317 142.388V140.388ZM211.391 138.41H213.391C213.391 138.402 213.392 138.401 213.392 138.403C213.391 138.403 213.391 138.405 213.388 138.408C213.385 138.411 213.378 138.417 213.364 138.423C213.349 138.43 213.331 138.433 213.317 138.433V136.433V134.433C211.1 134.433 209.391 136.264 209.391 138.41H211.391ZM213.317 136.433V138.433C213.303 138.433 213.285 138.43 213.27 138.423C213.256 138.417 213.249 138.411 213.246 138.408C213.243 138.405 213.243 138.403 213.242 138.403C213.242 138.401 213.243 138.402 213.243 138.41H215.243H217.243C217.243 136.264 215.535 134.433 213.317 134.433V136.433Z" fill="white" mask="url(#path-12-inside-1_114_925)"/>
<path d="M244.132 58.3416C247.348 58.3418 249.872 60.8153 249.873 63.7673C249.873 66.7195 247.348 69.1938 244.132 69.1941C240.916 69.1941 238.391 66.7196 238.391 63.7673C238.391 60.8152 240.916 58.3416 244.132 58.3416Z" fill="white" stroke="white" stroke-width="2"/>
<path d="M244.132 58.3416C247.348 58.3418 249.872 60.8153 249.873 63.7673C249.873 66.7195 247.348 69.1938 244.132 69.1941C240.916 69.1941 238.391 66.7196 238.391 63.7673C238.391 60.8152 240.916 58.3416 244.132 58.3416Z" fill="white" stroke="white" stroke-width="2"/>
<path d="M7.24316 241.241C8.26168 241.241 9.13177 242.096 9.13184 243.207C9.13184 244.318 8.26172 245.173 7.24316 245.173C6.2247 245.172 5.35449 244.317 5.35449 243.207C5.35456 242.096 6.22474 241.241 7.24316 241.241Z" fill="white" stroke="white" stroke-width="2"/>
<path d="M7.24316 241.241C8.26168 241.241 9.13177 242.096 9.13184 243.207C9.13184 244.318 8.26172 245.173 7.24316 245.173C6.2247 245.172 5.35449 244.317 5.35449 243.207C5.35456 242.096 6.22474 241.241 7.24316 241.241Z" fill="white" stroke="white" stroke-width="2"/>
<path d="M77.5391 367.788C78.5576 367.788 79.4277 368.643 79.4277 369.754C79.4277 370.864 78.5576 371.719 77.5391 371.719C76.5206 371.719 75.6504 370.864 75.6504 369.754C75.6505 368.643 76.5206 367.788 77.5391 367.788Z" fill="white" stroke="white" stroke-width="2"/>
<path d="M199.835 290.673C200.854 290.673 201.724 291.528 201.724 292.639C201.724 293.75 200.854 294.605 199.835 294.605C198.817 294.605 197.947 293.75 197.947 292.639C197.947 291.529 198.817 290.673 199.835 290.673Z" fill="white" stroke="white" stroke-width="2"/>
<path d="M178.65 367.788C179.669 367.788 180.539 368.643 180.539 369.754C180.539 370.864 179.669 371.719 178.65 371.719C177.632 371.719 176.762 370.864 176.762 369.754C176.762 368.643 177.632 367.788 178.65 367.788Z" fill="white" stroke="white" stroke-width="2"/>
<path d="M209.465 248.162C210.484 248.162 211.354 249.017 211.354 250.127C211.354 251.238 210.484 252.093 209.465 252.093C208.447 252.093 207.577 251.238 207.577 250.127C207.577 249.017 208.447 248.162 209.465 248.162Z" fill="white" stroke="white" stroke-width="2"/>
<mask id="path-22-inside-2_114_925" fill="white">
<ellipse cx="239.799" cy="247.656" rx="1.44445" ry="1.48297"/>
</mask>
<ellipse cx="239.799" cy="247.656" rx="1.44445" ry="1.48297" fill="white"/>
<path d="M241.243 247.656H239.243C239.243 247.42 239.443 247.139 239.799 247.139V249.139V251.139C241.751 251.139 243.243 249.529 243.243 247.656H241.243ZM239.799 249.139V247.139C240.155 247.139 240.354 247.42 240.354 247.656H238.354H236.354C236.354 249.529 237.847 251.139 239.799 251.139V249.139ZM238.354 247.656H240.354C240.354 247.891 240.155 248.173 239.799 248.173V246.173V244.173C237.847 244.173 236.354 245.782 236.354 247.656H238.354ZM239.799 246.173V248.173C239.443 248.173 239.243 247.891 239.243 247.656H241.243H243.243C243.243 245.782 241.751 244.173 239.799 244.173V246.173Z" fill="white" mask="url(#path-22-inside-2_114_925)"/>
<mask id="path-24-inside-3_114_925" fill="white">
<ellipse cx="280.725" cy="267.923" rx="1.92592" ry="1.97729"/>
</mask>
<ellipse cx="280.725" cy="267.923" rx="1.92592" ry="1.97729" fill="white"/>
<path d="M282.651 267.923H280.651C280.651 267.931 280.649 267.933 280.65 267.931C280.65 267.93 280.651 267.929 280.654 267.926C280.657 267.923 280.664 267.917 280.678 267.911C280.693 267.904 280.711 267.9 280.725 267.9V269.9V271.9C282.942 271.9 284.651 270.07 284.651 267.923H282.651ZM280.725 269.9V267.9C280.739 267.9 280.756 267.904 280.772 267.911C280.786 267.917 280.793 267.923 280.796 267.926C280.798 267.929 280.799 267.93 280.799 267.931C280.8 267.933 280.799 267.931 280.799 267.923H278.799H276.799C276.799 270.07 278.507 271.9 280.725 271.9V269.9ZM278.799 267.923H280.799C280.799 267.915 280.8 267.914 280.799 267.915C280.799 267.916 280.798 267.918 280.796 267.92C280.793 267.923 280.786 267.93 280.772 267.936C280.756 267.942 280.739 267.946 280.725 267.946V265.946V263.946C278.507 263.946 276.799 265.776 276.799 267.923H278.799ZM280.725 265.946V267.946C280.711 267.946 280.693 267.942 280.678 267.936C280.664 267.93 280.657 267.923 280.654 267.92C280.651 267.918 280.65 267.916 280.65 267.915C280.649 267.914 280.651 267.915 280.651 267.923H282.651H284.651C284.651 265.776 282.942 263.946 280.725 263.946V265.946Z" fill="white" mask="url(#path-24-inside-3_114_925)"/>
<path d="M306.725 504.221C307.743 504.221 308.613 505.076 308.613 506.187C308.613 507.298 307.743 508.153 306.725 508.153C305.706 508.152 304.836 507.297 304.836 506.187C304.836 505.076 305.706 504.221 306.725 504.221Z" fill="white" stroke="white" stroke-width="2"/>
<path d="M306.725 504.221C307.743 504.221 308.613 505.076 308.613 506.187C308.613 507.298 307.743 508.153 306.725 508.153C305.706 508.152 304.836 507.297 304.836 506.187C304.836 505.076 305.706 504.221 306.725 504.221Z" fill="white" stroke="white" stroke-width="2"/>
<path d="M306.725 504.221C307.743 504.221 308.613 505.076 308.613 506.187C308.613 507.298 307.743 508.153 306.725 508.153C305.706 508.152 304.836 507.297 304.836 506.187C304.836 505.076 305.706 504.221 306.725 504.221Z" fill="white" stroke="white" stroke-width="2"/>
<path d="M306.725 504.221C307.743 504.221 308.613 505.076 308.613 506.187C308.613 507.298 307.743 508.153 306.725 508.153C305.706 508.152 304.836 507.297 304.836 506.187C304.836 505.076 305.706 504.221 306.725 504.221Z" fill="white" stroke="white" stroke-width="2"/>
<path d="M195.021 559.585C196.04 559.585 196.91 560.44 196.91 561.551C196.91 562.662 196.04 563.517 195.021 563.517C194.003 563.517 193.132 562.662 193.132 561.551C193.132 560.44 194.003 559.585 195.021 559.585Z" fill="white" stroke="white" stroke-width="2"/>
<path d="M227.762 518.062C228.78 518.062 229.65 518.917 229.65 520.028C229.65 521.139 228.78 521.994 227.762 521.994C226.743 521.994 225.873 521.138 225.873 520.028C225.873 518.917 226.743 518.062 227.762 518.062Z" fill="white" stroke="white" stroke-width="2"/>
</svg>
